<svg xmlns="http://www.w3.org/2000/svg" width="20" height="20" viewBox="0 0 20 20">
    <g fill="none" fill-rule="evenodd">
        <g fill="#FFF">
            <g>
                <g>
                    <path d="M9.6 0c5.302 0 9.6 4.298 9.6 9.6-.006 5.3-4.3 9.594-9.6 9.6-5.302 0-9.6-4.298-9.6-9.6S4.298 0 9.6 0zm5.409 4.516c-.398-.397-.997-.512-1.513-.29L7.02 7.02l-2.794 6.476-.061.175c-.132.472-.002.985.351 1.338.397.397.997.512 1.513.29l6.476-2.794 2.793-6.477.062-.174c.132-.472.002-.985-.351-1.338zM9.762 8.39c.751.015 1.356.62 1.372 1.371-.002.757-.615 1.37-1.372 1.372-.365.005-.717-.138-.975-.396-.259-.258-.401-.61-.396-.976.002-.756.615-1.369 1.371-1.371z" transform="translate(-46 -111) translate(19.9 111) translate(26.3)"/>
                </g>
            </g>
        </g>
    </g>
</svg>
