<svg xmlns="http://www.w3.org/2000/svg" width="18" height="18" viewBox="0 0 18 18">
    <g fill="none" fill-rule="evenodd">
        <g fill="#FFF" fill-rule="nonzero">
            <g>
                <path d="M15.499 0H2.501C1.121.002.001 1.12 0 2.501V15.5c.002 1.38 1.12 2.5 2.501 2.501h12.998c1.38-.002 2.5-1.12 2.501-2.501V2.5c-.002-1.38-1.12-2.5-2.501-2.501zm1.212 15.499c0 .669-.543 1.21-1.212 1.212H2.501c-.67-.001-1.211-.543-1.212-1.212V2.5c0-.669.543-1.21 1.212-1.212h12.998c.67.001 1.211.543 1.212 1.212V15.5z" transform="translate(-179 -113) translate(179 113)"/>
                <path d="M3.2 7.255l2.24 1.299c.198.115.442.115.64 0l2.24-1.299c.198-.115.32-.327.32-.556V4.1c0-.23-.122-.441-.32-.556l-2.24-1.3c-.198-.114-.442-.114-.64 0l-2.24 1.3c-.198.114-.32.327-.32.556V6.7c0 .23.122.442.32.556zm.96-2.783l1.6-.928 1.6.928v1.856l-1.6.927-1.6-.927V4.472zM3.497 11.52h3.086c.34 0 .617-.322.617-.72 0-.398-.276-.72-.617-.72H3.497c-.34 0-.617.322-.617.72 0 .398.276.72.617.72zM9.425 12.96h-5.89c-.362 0-.655.322-.655.72 0 .398.293.72.655.72h5.89c.362 0 .655-.322.655-.72 0-.398-.293-.72-.655-.72zM13.064 9.553c-.256-.257-.672-.257-.928 0l-1.856 1.865c-.17.165-.239.41-.179.641.06.23.24.41.469.47.23.061.473-.007.638-.179l.736-.74v3.57c0 .365.294.66.656.66.362 0 .656-.295.656-.66v-3.57l.736.74c.165.172.409.24.638.18.23-.06.409-.24.469-.471.06-.23-.009-.476-.18-.641l-1.855-1.865z" transform="translate(-179 -113) translate(179 113)"/>
            </g>
        </g>
    </g>
</svg>
