<svg xmlns="http://www.w3.org/2000/svg" width="21" height="23" viewBox="0 0 21 23">
    <g fill="none" fill-rule="evenodd">
        <g fill="#FFF" fill-rule="nonzero">
            <g>
                <g>
                    <g>
                        <path d="M10.947 2.765L14.083 5.9l1.534-1.534-3.136-3.136c-.665-.666.347-1.678 1.013-1.012l7.288 7.288c.666.666-.346 1.678-1.012 1.012l-3.136-3.135L15.1 6.917l3.136 3.134c.28.281.28.737 0 1.017l-7.233 7.233c-.165.166-.392.233-.607.204l-6.29-.595-1.87 1.871c-.67.669-1.686-.348-1.017-1.016l1.871-1.872-.598-6.32c-.022-.241.077-.465.247-.612l7.195-7.195c.28-.28.733-.28 1.013-.001zM1 20c.25 1 1 1.5 1 2s-.25 1-1 1-1-.5-1-1 .75-1 1-2zm9.495-13L14 10.504 9.505 15l-3.203-.303L6 11.495 10.495 7zM17 10.392L10.608 4 4 10.607l.552 5.84 5.839.553L17 10.392z" transform="translate(-306 -113) translate(19.9 111) translate(257.1 2) translate(29)"/>
                    </g>
                </g>
            </g>
        </g>
    </g>
</svg>
